<?xml version="1.0" encoding="UTF-8" standalone="no"?>
<svg
   version="1.0"
   width="1137.000000pt"
   height="803.000000pt"
   viewBox="0 0 1137.000000 803.000000"
   preserveAspectRatio="xMidYMid meet"
   id="svg14"
   sodipodi:docname="bismih.svg"
   inkscape:version="1.4 (e7c3feb100, 2024-10-09)"
   xmlns:inkscape="http://www.inkscape.org/namespaces/inkscape"
   xmlns:sodipodi="http://sodipodi.sourceforge.net/DTD/sodipodi-0.dtd"
   xmlns="http://www.w3.org/2000/svg"
   xmlns:svg="http://www.w3.org/2000/svg">
  <defs
     id="defs14" />
  <sodipodi:namedview
     id="namedview14"
     pagecolor="#505050"
     bordercolor="#eeeeee"
     borderopacity="1"
     inkscape:showpageshadow="0"
     inkscape:pageopacity="0"
     inkscape:pagecheckerboard="0"
     inkscape:deskcolor="#505050"
     inkscape:document-units="pt"
     inkscape:zoom="0.55608709"
     inkscape:cx="701.329"
     inkscape:cy="424.39396"
     inkscape:window-width="1920"
     inkscape:window-height="1007"
     inkscape:window-x="0"
     inkscape:window-y="0"
     inkscape:window-maximized="1"
     inkscape:current-layer="svg14" />
  <g
     transform="matrix(0.28509598,0,0,-0.28509598,-1067.2942,1800.2128)"
     fill="#000000"
     stroke="none"
     id="g14">
    <path
       id="path3"
       d="m 6719.5898,5926.748 c -3.3201,-0.5286 -6.6217,-1.1639 -9.9462,-1.6699 -16.7402,-2.5098 -33.6287,-3.7566 -50.5225,-4.5996 -11.4432,-0.5537 -22.8972,-0.7534 -34.3506,-0.8935 -7.5526,-0.598 -14.9311,-5.912 -17.7685,-11.587 -3,-9 -10.0059,-6.998 -21.0059,7.002 -2.1166,2.4694 -3.2573,2.5877 -5.0684,4.3213 -1.455,0 -2.9102,-0.011 -4.3652,-0.015 -5.5827,-0.012 -11.1629,-0.011 -16.7432,-0.015 -7.9756,-5.7243 -26.1446,-9.2871 -51.8261,-9.2871 -39,0 -49,-3.0039 -45,-14.0039 3,-8 2.0078,-27.0078 -1.9922,-43.0078 -8,-28 -7.9961,-27.9883 -15.9961,12.0117 -9,47 -20.002,55.9892 -52.002,43.9892 -14,-5 -40.0039,-8.9941 -59.0039,-8.9941 -24,0 -33.999,-5 -33.999,-15 0,-13 -3.9971,-14.0068 -26.9971,-2.0068 -19,9 -43.0078,11.0058 -73.0078,6.0058 -25,-3 -66.999,-5.0029 -93.999,-3.0029 -56,4 -87.9951,-8.9961 -79.9951,-30.9961 4,-10 0,-15 -15,-15 -12,0 -21.0059,-6 -21.0059,-15 0,-11 -11.9922,-15 -46.9922,-15 l -48.0029,0.9961 23.9941,18.999 c 13,11 30.0127,20.0098 38.0127,20.0098 8,0 11.9981,3.9941 7.9981,8.9941 -3,6 -24.0029,8.9981 -48.0029,7.9981 -31,-2 -41.0088,-5.9922 -39.0088,-16.9922 2,-11 -1.9971,-10.001 -11.9971,3.999 -8,10 -20.001,15.001 -26.001,11.001 -6,-4 -40.9883,-9.0117 -77.9883,-12.0117 -119,-8 -139.0009,-10.9883 -161.0009,-17.9883 -12,-4 -28.0059,-2.0049 -36.0059,4.9951 -9,8 -14.9951,8 -19.9951,0 -3,-6 -10,-7.9951 -15,-4.9951 -4,3 -37.0117,-0.9981 -72.0117,-7.9981 -34,-7 -81.9961,-10.0019 -105.9961,-7.0019 -24,4 -45.003,2.9931 -48.003,-2.0069 -3,-5 -11.999,-3.9931 -18.999,2.0069 -8,7 -20.001,7.999 -26.001,3.999 -7,-4 -38.9931,-9.001 -72.9931,-11.001 -34,-2 -72.001,-8.0078 -86.001,-13.0078 -14,-5 -64.002,-10.9892 -112.002,-13.9892 -48,-2 -91.998,-7.001 -97.998,-11.001 -6,-4 -8.998,-0.9981 -7.998,7.0019 2,8 -8.0079,12.9893 -28.0079,13.9893 -17,1 -35.9931,3.998 -42.9931,7.998 -6,4 -11.001,1.002 -11.001,-7.998 0,-9 -8.0029,-15.9961 -18.0029,-15.9961 -20,0 -58.003,-62.999 -48.003,-78.999 4,-6 2.0118,-11.001 -2.9882,-11.001 -6,0 -11.001,-7 -11.001,-15 0,-11 -4.0069,-13.0059 -17.0069,-6.0059 -10,5 -32.9951,15.0059 -49.9951,21.0059 -18,7 -33.0029,16.0059 -33.0029,21.0059 0,5 -10.9941,8.9941 -23.9941,8.9941 -13,0 -30.002,6.9961 -37.002,15.9961 -10,12 -23.9971,15.0049 -56.9971,10.0049 -40,-5 -43.0019,-3.9961 -37.0019,14.0039 6,17 1.9961,19.9951 -29.0039,19.9951 -19,0 -41.9951,-6.9961 -49.9951,-15.9961 -9,-8 -16.0108,-11.0059 -16.0108,-6.0059 0,5 -11.9971,13.0069 -26.9971,17.0069 -21,5 -32.0039,1.9961 -44.0039,-14.0039 -10,-12 -23.9882,-21.0059 -32.9882,-21.0059 -9,0 -33.0127,-8.9951 -53.0127,-19.9951 -21,-11 -48,-19.9951 -60,-19.9951 -13,0 -21.9912,-3.002 -20.9912,-7.002 2,-5 -6.0069,-18 -17.0069,-30 -22,-26 -50.001,-30.998 -41.001,-7.998 4,10 -0.9892,15 -13.9892,15 -18,0 -25.0059,-16.0117 -21.0059,-42.0117 0,-5 -2.9941,-7.9981 -8.9941,-7.9981 -5,0 -10.0049,5.0049 -10.0049,10.0049 0,6 -7,10.0049 -15,10.0049 -17,0 -19.9951,-16.0049 -4.9951,-25.0049 16,-10 0.9931,-25.0029 -17.0069,-18.0029 -11,4 -13.9941,3.0088 -8.9941,-5.9912 5,-7 0.9912,-20.0108 -9.0088,-31.0108 -11,-12 -14.9971,-28.001 -11.9971,-41.001 5,-20 3.0069,-21 -42.9931,-15 -59,8 -85.0098,-10.998 -95.0098,-67.998 -4,-19 -12.9912,-40.9922 -20.9912,-46.9922 -11,-9 -12.0068,-15.001 -2.0068,-26.001 9,-11 7.997,-13.0009 -3.003,-11.0009 -11,2 -14,-12.002 -15,-67.002 0,-38 -3.998,-82.998 -7.998,-97.998 -5,-17 -4.9893,-31.9981 1.0107,-37.9981 6,-6 6.9922,-27.0019 1.9922,-52.0019 -5,-29 -2.998,-50.0088 7.002,-69.0088 8,-15 14.0039,-32.9864 14.0039,-40.9864 0,-8 9.9912,-17.0097 20.9912,-20.0097 16,-4 20.0107,-10.9971 16.0107,-26.9971 -3,-12 -3,-18.9961 0,-15.9961 8,8 43.9981,-35.0039 37.9981,-44.0039 -3,-5 7.9941,-14.0059 23.9941,-21.0059 36,-16 50.0059,-45.9951 36.0059,-79.9951 -4,-10 2.9951,-20.0039 19.9951,-29.0039 14,-7 25.0049,-19.001 25.0049,-26.001 0,-6 15.9951,-25.9931 34.9951,-42.9931 19,-17 34.9951,-40.0059 34.9951,-51.0059 0,-11 3.9981,-19.9951 7.9981,-19.9951 9,0 52.0029,-33.002 108.0029,-82.002 22,-21 45.998,-37.998 52.998,-37.998 6,0 14.003,-7 18.003,-15 8,-23 55.9961,-45.001 120.9961,-56.001 224,-40 361.0068,-50.0058 467.0068,-36.0058 103,14 214.9951,18.0127 214.9951,8.0127 0,-6 9.9981,-11.0049 22.9981,-10.0049 21,0 21.0068,0.998 2.0068,7.998 -19,8 -18.9971,8 3.0029,15 13,4 39.0039,9.9971 59.0039,11.9971 20,3 38.9893,7.0049 43.9893,10.0049 4,2 17.0078,-0.9981 28.0078,-7.9981 17,-10 22.9902,-9.0088 39.9902,5.9912 15,14 24.0088,15.002 39.0088,7.002 19,-10 18.9932,-10.9981 -2.0068,-52.9981 -11,-24 -28.9941,-55.0048 -38.9941,-70.0048 -11,-16 -20.002,-50.9893 -22.002,-88.9893 -2,-34 -9,-67.0078 -15,-73.0078 -9,-8 -11.0049,-3.9961 -10.0049,14.0039 4,49 1,57.0059 -15,36.0059 -11,-15 -16.9931,-16.0127 -27.9931,-8.0127 -17,14 -26.9971,6.0088 -26.9971,-20.9912 0,-14 4.9951,-18.004 19.9951,-14.004 17,4 19.9951,0 19.9951,-29.0039 0,-19 -3.9902,-34.9951 -9.9902,-34.9951 -5,-1 -15.002,-2.0029 -22.002,-3.0029 -6,0 -12.0039,-9.9912 -14.0039,-20.9912 -2,-11 -8.0039,-20.9981 -14.0039,-22.9981 -20,-7 -38.999,-33.0107 -33.999,-46.0107 3,-8 16,-16.9951 30,-19.9951 24,-6 28.0088,-26.0049 9.0088,-55.0049 -5,-10 -4.0117,-15.999 2.9883,-18.999 7,-2 12.0117,-14.9932 12.0117,-27.9932 0,-17 7.9902,-26.999 24.9902,-33.999 13,-5 35.0029,-26.0069 48.0029,-47.0069 25,-39 28.003,-60.9931 3.003,-27.9931 -9,13 -14.9951,14.9912 -19.9951,5.9912 -10,-15 16.9931,-41.001 42.9931,-41.001 22,0 40.999,-26.9922 33.999,-46.9922 -3,-7 0,-13.0078 4.9952,-13.0078 6,0 12.0039,4.0049 14.0039,10.0049 2,6 18.0078,4.9932 43.0078,-2.0068 22,-6 60.9931,-13 87.9931,-15 26,-3 47.0069,-8.9893 47.0069,-13.9893 0,-17 44,-28 60,-15 11,8 9.9971,3.9893 -3.0029,-16.0107 -0.5216,-0.8391 -0.6458,-1.1868 -1.1426,-1.9922 18.6083,1.1879 37.2136,2.4246 55.8252,3.5595 15.3334,0.7209 30.6447,1.8366 45.9668,2.7686 1.6471,1.0566 3.602,1.8616 5.9765,2.168 3.137,0.4047 6.6595,-0.3102 10.0196,-1.2159 12.9614,0.8264 25.9333,1.478 38.8916,2.3438 38.5319,2.2386 77.1039,3.7956 115.6787,5.083 44.273,1.3268 88.5582,1.7371 132.8467,2.0801 5.1407,8.8554 8.9355,17.4911 8.9355,24.2139 0,32 15,28.998 30,-7.002 3.0988,-7.4372 5.9897,-12.4632 8.9063,-16.9482 10.8007,0.052 21.6013,0.079 32.4023,0.1171 3.1414,3.0665 6.0027,5.3957 9.6973,9.8291 14,17 17.999,19.0059 18.999,6.0059 0,-4.604 1.8993,-10.2251 4.8926,-15.7178 13.7648,0.034 27.5296,0.1229 41.2939,0.1465 13.1256,0.017 26.2502,0.019 39.375,0.029 2.0182,5.8726 0.678,13.9459 -6.5625,22.544 -9,11 -14.0098,11.9882 -20.0098,2.9882 -9,-16 -38.9941,-3.9892 -38.9941,16.0108 0,9 5.001,12.9902 11.001,9.9902 19,-13 78.999,4.9981 78.999,22.9981 1,28 30,-16.9961 30,-45.9961 0,-18 3.9961,-23.003 15.9961,-18.003 9,3 20.0049,6.0059 25.0049,6.0059 6,0 6.0039,7.999 -0.9961,18.999 -5,11 -7.0029,21.9942 -3.0029,23.9942 12,7 88.9951,0.01 109.9951,-9.9903 26,-14 86.0029,-16.0029 78.0029,-3.0029 -3,5 -18.9951,10.0049 -34.9951,10.0049 -16,0 -30.999,3.998 -33.999,7.998 -3,5 17.9921,4.9922 46.9921,1.9922 28,-4 52.0088,-10.9961 54.0088,-15.9961 3,-10 94,-8.0049 165,4.9951 26,4 53,4 60,0 7,-5 22.9952,-5.9921 34.9952,-1.9921 19,4 22.998,1.0039 22.998,-15.9961 0,-14 5.9951,-21.0059 19.9951,-21.0059 13,0 18.0039,5 14.0039,15 -4,8 -10,15 -15,15 -5,0 -8.9941,7 -8.9941,15 0,8 8.9951,15 19.9951,15 28,0 71.002,21.999 67.002,33.999 -2,6 -15.9961,9.9981 -30.9961,7.9981 -18,-2 -26.001,2.0078 -26.001,13.0078 0,12 5.9951,14.9902 19.9951,9.9902 16,-5 19.9951,-1.9961 19.9951,14.0039 0,16 6.0039,21.0059 29.0039,21.0059 31,0 46.0039,-20.9981 29.0039,-37.9981 -14,-14 -2,-45.0088 15,-39.0088 6,2 12.9932,9 12.9932,15 3,24 4.0107,26.004 16.0107,14.004 7,-7 17.9903,-11.9971 24.9903,-11.9971 19,0 16.0009,26.9941 -3.9991,38.9941 -17,9 -17,10.0078 0,28.0078 9,11 17.0069,24.9922 17.0069,31.9922 0,7 5.9931,10.9981 12.9931,7.9981 7,-3 20.9961,1.0088 30.9961,9.0088 16,11 17.0098,16 5.0098,30 -7,9 -12.0049,32.9902 -10.0049,54.9902 1,23 -1.998,39.0088 -7.998,39.0088 -6,0 -11.001,5.9892 -11.001,13.9892 0,8 -7,16.0098 -15,20.0098 -8,3 -15,15.001 -15,26.001 0,11 -7,19.9951 -15,19.9951 -8,0 -15,8.0029 -15,18.0029 -1,9 -21,33.002 -45,52.002 -25,19 -45,38.9931 -45,42.9931 0,4 -17.002,23.9971 -37.002,41.9971 -42,39 -36.9912,46.0039 9.0088,14.0039 16,-12 31.9952,-18.9961 34.9952,-15.9961 6,6 -126.003,136.9922 -138.003,136.9922 -5,0 -16.0049,12.001 -25.0049,26.001 -12,17 -22.9873,24.0098 -36.9873,20.0098 -13,-3 -21.0088,1 -24.0088,15 -3,10 -8.9931,18.999 -12.9931,18.999 -5,0 -12.999,13.9961 -18.999,30.9961 -10,30 -10.0118,29.9941 17.9882,23.9941 29,-6 51.0108,8.0098 31.0108,20.0098 -15,9 -12.0088,24.9902 5.9912,24.9902 8,0 12.0088,-3.9902 9.0088,-9.9902 -3,-5 2.9892,-10.0049 13.9892,-10.0049 12,0 21.0059,5.0049 21.0059,10.0049 0,13 50.0049,13 70.0049,0 10,-6 10.9883,-10.0049 2.9883,-10.0049 -7,0 -12.9932,-4.0049 -12.9932,-10.0049 0,-14 113.998,-11.9931 127.998,2.0069 7,7 29.9981,11.0048 52.9981,10.0048 38,-3 108.0039,14.9893 119.0039,28.9893 3,4 28.0049,8.9971 55.0049,11.9971 28,2 69.9951,10.0107 94.9951,16.0107 52,14 74.9971,30.9961 41.9971,30.9961 -12,0 -22.002,5.001 -22.002,11.001 0,8 17.001,8.999 56.001,3.999 43,-5 61.0098,-2.9951 80.0098,10.0049 13,9 28.999,12.9902 33.999,9.9902 5,-3 11.9922,0.9981 16.9922,7.9981 11,18 43.0049,30.0078 70.0049,28.0078 12,-1 32.0039,2.9941 44.0039,8.9941 32,18 78.999,62.0039 78.999,74.0039 0,7 8.9951,19.0039 19.9951,29.0039 11,9 19.9951,28.001 19.9951,41.001 0,14 6.0039,30.9981 14.0039,37.9981 7,8 17.9942,29.0029 23.9942,48.0029 43,134 46.0107,147.9951 46.0107,274.9951 1,118 -1.0019,133.9951 -22.0019,169.9951 -14,25 -21.003,31.0029 -18.003,18.0029 2,-13 0,-22.998 -4.9951,-22.998 -5,0 -11,11.9932 -15,27.9932 -16,75 -67.001,192.0097 -86.001,200.0097 -4,2 -10.0039,19.9903 -14.0039,39.9903 -4,21 -18.9951,48.0068 -34.9951,62.0068 -3.3739,3.149 -6.2106,7.1909 -9.4482,10.8545 -16.8798,-7.648 -41.9581,-2.1225 -64.9073,25.415 -6.2763,7.5313 -12.9855,14.6384 -20.3173,21.1084 1.7987,-5.5894 6.005,-12.2012 12.6709,-19.3799 11,-13 17.996,-27.9951 15.996,-34.9951 -2,-7 1.002,-21.0068 7.002,-32.0068 8,-17 8.001,-20.9912 -3.999,-20.9912 -7,0 -15.9951,7 -19.9951,15 -3,8 -10.0069,15 -17.0069,15 -6,0 -19.9961,10.9902 -30.9961,24.9902 -11,14 -28.0088,25.0049 -39.0088,25.0049 -11,0 -22.0009,6.9961 -26.0009,15.9961 -3,8 -10.9883,13.0049 -17.9883,10.0049 -12,-4 -26.0088,15.997 -39.0088,56.997 -3,11 -11.0029,15.001 -18.0029,11.001 -8,-5 -8.9952,-1.9951 -4.9952,10.0049 0.9731,2.4327 0.7177,3.4461 1.0987,5.2295 -14.0967,4.1728 -28.2445,8.1718 -42.4805,11.8652 -20.9816,5.5021 -41.8628,11.4706 -63.0029,16.333 -15.368,3.1432 -30.9106,5.2867 -46.3037,8.3057 -12.211,1.8305 -24.4929,3.1122 -36.7676,4.4678 -0.4869,-5.5706 -2.1614,-10.8333 -5.5371,-14.209 -7,-7 -10.0049,-6.9893 -10.0049,1.0107 0,3.438 -2.0352,9.785 -3.4424,15.4688 -0.2775,0.04 -0.5575,0.062 -0.8349,0.1025 -18.617,2.8101 -37.1595,6.0884 -55.7227,9.2285 -23.6705,4.6838 -47.1223,10.4316 -70.752,15.3223 -31.6048,6.741 -63.2822,13.1595 -95.039,19.1455 -14.9651,3.0049 -30.0571,5.8197 -44.6192,10.4736 z m -379.5849,-66.7529 c 6,0 9.9902,-3.9902 9.9902,-9.9902 0,-5 -3.9902,-10.0049 -9.9902,-10.0049 -5,0 -10.0049,5.0049 -10.0049,10.0049 0,6 5.0049,9.9902 10.0049,9.9902 z m -810,-39.9902 c 6,0 9.9902,-4.0049 9.9902,-10.0049 0,-5 -3.9902,-10.0049 -9.9902,-10.0049 -5,0 -10.0049,5.0049 -10.0049,10.0049 0,6 5.0049,10.0049 10.0049,10.0049 z m 1518.999,0 c 6,0 11.001,-4.0049 11.001,-10.0049 0,-5 -1.999,-10.0049 -3.999,-10.0049 -3,0 -8.001,5.0049 -11.001,10.0049 -3,6 -1.001,10.0049 3.999,10.0049 z m 110.625,-1.2598 c 3.875,1.75 10.876,-2.7402 20.376,-13.7402 6,-8 8.9951,-19.0049 4.9951,-25.0049 -11,-17 -21.9971,-11 -26.9971,15 -3,14 -2.249,21.9951 1.626,23.7451 z M 5700.9961,5810 c 5,0 9.0088,-4.0049 9.0088,-10.0049 0,-5 -7.0108,-9.9902 -16.0108,-9.9902 -8,0 -11.9941,4.9902 -8.9941,9.9902 3,6 9.9961,10.0049 15.9961,10.0049 z m -235.3711,-10.0049 c 12.625,0 24.375,-2.9941 24.375,-8.9941 0,-6 -3.998,-12 -7.998,-15 -13,-8 -51.9961,5 -45.9961,15 3.5,6 16.9941,8.9941 29.6191,8.9941 z m -86.6309,-9.9902 c 6,0 13.0108,-4.0049 16.0108,-10.0049 3,-5 -1.0088,-10.0049 -9.0088,-10.0049 -9,0 -15.9961,5.0049 -15.9961,10.0049 0,6 3.9941,10.0049 8.9941,10.0049 z m 200.0098,0 c 12,0 20.9912,-6 20.9912,-15 0,-8 -3.9941,-15 -8.9941,-15 -5,0 -14.0059,7 -21.0059,15 -10,13 -8.9912,15 9.0088,15 z M 5070,5780 c 11,0 19.9951,-4.0049 19.9951,-10.0049 0,-5 -8.9951,-9.9902 -19.9951,-9.9902 -11,0 -19.9951,4.9902 -19.9951,9.9902 0,6 8.9951,10.0049 19.9951,10.0049 z m 70.0049,-2.0068 c 14,0 18.9931,-1.9952 12.9931,-4.9952 -7,-2 -19.0048,-2 -25.0048,0 -7,3 -1.9883,4.9952 12.0117,4.9952 z m 61.7431,-5.7422 c 7.25,0.75 17.2569,0.751 28.2569,-0.249 22,-2 39.9902,-5.9981 39.9902,-7.9981 0,-2 -17.9902,-3.999 -39.9902,-3.999 -22,0 -40.0049,2.998 -40.0049,7.998 0,2 4.498,3.4981 11.748,4.2481 z m -174.7412,-3.252 c 1,1 -6,-11.9931 -15,-27.9931 -18,-33 -37.0019,-41.0108 -67.0019,-31.0108 -17,6 -16.002,8.0039 7.998,14.0039 15,3 26.9971,11.0069 26.9971,17.0069 0,7 21.0068,19.9931 47.0068,27.9931 z M 5136.0059,5750 c 2,0 3.999,-4.0049 3.999,-10.0049 0,-5 -5.001,-9.9902 -11.001,-9.9902 -5,0 -6.999,4.9902 -3.999,9.9902 3,6 8.001,10.0049 11.001,10.0049 z m -285,-49.9951 c 5,0 8.9941,-4.0049 8.9941,-10.0049 0,-5 -6.9961,-10.0049 -15.9961,-10.0049 -8,0 -12.0088,5.0049 -9.0088,10.0049 3,6 10.0108,10.0049 16.0108,10.0049 z m -657.0118,-20.0098 c 8,0 18.0059,-3.9902 21.0059,-9.9902 3,-5 -0.9941,-10.0049 -8.9941,-10.0049 -8,0 -18.0059,5.0049 -21.0059,10.0049 -3,6 0.9941,9.9902 8.9941,9.9902 z M 7443.999,5660 c 2,0 14.001,-21.0068 26.001,-47.0068 12,-27 29.002,-53 37.002,-60 17,-13 28.9931,-97.9932 12.9931,-87.9932 -6,3 -9.9902,13.002 -9.9902,22.002 0,8 -16.0098,40.9931 -35.0098,72.9931 -30,49 -45.9961,100.0049 -30.9961,100.0049 z m -3313.5058,-25.5029 c 10.25,-1 22.5097,-4.4922 27.5097,-9.4922 3,-3 -3.9961,-5.0098 -15.9961,-5.0098 -11,0 -23.0117,4.0088 -27.0117,9.0088 -3,5 5.2481,6.4932 15.4981,5.4932 z m 2758.916,-173.1592 c 3.9871,0.1329 8.1016,0.035 14.4287,-0.3223 5.3169,-0.3005 10.5951,-1.0627 15.8935,-1.5967 35.8561,-5.3806 69.5756,-18.961 103.0811,-32.2119 4.8017,-1.9712 9.6048,-3.9294 14.3994,-5.9179 13.4029,-5.5586 26.5602,-11.5138 39.419,-18.252 9.7266,-5.097 16.2624,-8.9335 25.7519,-14.3408 16.9613,-9.8702 33.576,-20.3713 49.0576,-32.4609 9.7607,-7.6221 13.2773,-10.9733 22.3975,-19.043 10.9147,-10.3946 22.2753,-20.4241 32.3144,-31.6992 6.1888,-6.9507 7.5681,-9.0587 13.0957,-16.3623 10.8447,-15.1925 19.8441,-31.597 29.0918,-47.7832 6.0951,-10.6746 11.6675,-21.7097 15.9815,-33.2373 2.8762,-7.6857 3.458,-10.2189 5.6689,-17.9004 3.6611,-13.3716 5.6252,-27.1242 4.1162,-41.001 -0.4778,-4.3937 -1.0328,-8.8265 -2.3291,-13.0518 -1.8426,-6.0064 -4.7008,-11.6469 -7.0459,-17.4756 -2.8528,-4.545 -5.426,-9.278 -8.5546,-13.6377 -11.5064,-16.0339 -26.531,-29.8378 -42.3194,-41.5576 -3.573,-2.6522 -7.3068,-5.0868 -10.957,-7.6318 -25.238,-16.2077 -53.1898,-27.2342 -81.3135,-37.2656 -37.8597,-13.5349 -77.3392,-21.3312 -116.6162,-29.4287 -49.6525,-10.0997 -98.7501,-22.6603 -147.334,-37.002 -29.6807,-8.4087 -58.7859,-18.624 -87.9638,-28.5937 -19.5531,-6.2271 -38.9845,-12.9204 -58.7256,-18.545 -13.2229,-3.7674 -20.4804,-5.4392 -33.8965,-8.7744 -43.0959,-10.8181 -87.1493,-16.7604 -131.2647,-21.4599 -33.7127,-3.4266 -67.5973,-4.7005 -101.4697,-4.4825 -20.2035,-0.2043 -40.04,3.2003 -59.5166,8.2618 -12.2999,3.8255 -24.8109,8.1771 -35.2441,15.9814 -2.4057,1.7996 -4.597,3.856 -6.8994,5.7861 -2.561,3.0354 -5.4622,5.824 -7.6905,9.1114 -3.4212,5.047 -6.0385,10.7184 -7.9834,16.6259 -27.0768,5.1072 -40.7317,42.2616 -9.0527,84.3018 11.8129,15.6766 24.959,30.2754 38.1885,44.751 19.5277,20.4354 39.267,40.7527 60.6591,59.2675 14.0698,12.1774 20.4041,16.7398 35.0831,28.0811 33.5003,25.6281 67.6342,50.4053 102.1875,74.5898 17.2292,11.7818 34.1433,23.9913 50.9033,36.4161 0.19,3.5689 1.6534,7.9517 6.0498,13.5205 6,6.5 13.249,11.0097 18.999,12.5097 3.4295,0.8947 5.9248,0.2825 7.7051,-1.1718 18.7517,14.7763 36.4179,30.8265 53.8476,47.124 12.7009,11.6518 24.7385,23.8842 35.3467,37.4707 7.5677,10.4457 14.6935,21.2065 22.3535,31.582 8.4948,10.5178 18.0958,20.2638 28.9893,28.3154 2.6777,1.9792 5.4753,3.7658 8.2178,5.6543 15.6426,10.8577 32.9299,18.7233 50.7568,25.1954 4.4771,1.1017 8.9128,2.3859 13.4326,3.2959 7.3588,1.4822 17.6081,2.5885 25.1074,3.3105 5.8071,0.559 9.6652,0.9218 13.6524,1.0547 z m -716.9678,-4.3506 c 19.9907,-0.5403 29.7805,-3.8148 45.0586,-21.8115 4.1678,-4.9095 5.4888,-11.7747 6.8848,-18.0615 2.1463,-9.666 0.07,-16.1809 -1.6993,-25.2539 -3.2077,-12.3501 -9.0558,-23.7038 -15.3222,-34.7315 -5.9052,-10.7 -13.8911,-19.9873 -21.167,-29.7363 -8.1634,-10.6315 -15.3303,-21.9514 -22.5147,-33.252 -4.5566,-8.1197 -9.532,-16.0571 -13.5644,-24.4629 -1.153,-2.4035 -4.0632,-9.5291 -4.9072,-11.5576 -5.9124,-14.2787 -11.5313,-28.6861 -17.1534,-43.081 -4.6558,-13.0911 -10.9234,-25.4871 -16.9628,-37.9688 -4.4521,-9.5644 -9.1276,-19.0058 -14.004,-28.3594 -5.6462,-10.6747 -12.444,-20.6993 -19.3945,-30.5566 -7.6785,-10.9095 -15.0908,-21.9995 -22.3242,-33.208 -8.0636,-12.5476 -15.6028,-25.4205 -23.3057,-38.1885 -7.492,-13.3713 -16.5125,-25.7651 -25.6054,-38.0713 -13.3109,-17.6158 -26.471,-35.3409 -40.9717,-52.0019 -14.2107,-16.0444 -31.4063,-28.9176 -47.8125,-42.5537 -10.9444,-9.2226 -22.0294,-18.2767 -33.252,-27.1582 -2.4253,-1.9195 -4.7791,-3.3638 -7.1631,-4.9659 -9.9767,-10.2625 -20.1855,-20.2777 -31.4209,-29.2089 -12.4734,-10.0408 -27.5136,-21.2896 -42.8906,-26.1768 -5.0732,-1.6124 -10.3737,-2.4188 -15.5566,-3.6328 -6.8684,0.4459 -13.7863,0.3305 -20.5957,1.333 -3.1794,0.4681 -6.1555,1.8942 -9.1553,3.0469 -11.8645,4.5591 -22.7305,11.4419 -32.2266,19.8486 -16.2028,14.1981 -32.0347,28.8926 -46.04,45.3076 -21.207,24.3395 -42.5591,48.5574 -64.7021,72.0557 -20.6497,21.9604 -41.6955,43.5547 -62.1827,65.6689 -8.7147,8.8451 -17.5277,17.5906 -26.1328,26.543 -5.4237,5.6427 -10.6564,11.4689 -16.1426,17.0508 -2.6989,2.7459 -5.4885,5.3996 -8.2324,8.1006 -18.6452,17.9257 -37.4651,35.6655 -56.0888,53.6132 -3.2994,3.3129 -6.2381,6.9672 -9.5069,10.3125 -3.6818,2.4595 -7.3749,4.9002 -11.001,7.4414 -7.1678,5.0006 -14.5626,9.6684 -21.6211,14.8243 -6.0371,4.7174 -11.7223,9.7967 -16.6699,15.5713 0.367,-0.8759 1.0215,-2.301 0.6739,-1.7725 -0.46,0.7004 -0.7645,1.4944 -1.0987,2.2705 -2.0478,2.4284 -3.976,4.9717 -5.7275,7.6758 -0.7292,1.0797 -1.4377,2.1776 -2.1533,3.2666 -3.7848,4.0522 -7.7963,7.8861 -12.0411,11.4551 -7.806,6.6992 -15.5284,13.4935 -23.5253,19.9658 -8.5265,6.9257 -16.9673,13.9497 -25.459,20.918 -7.1732,5.7147 -14.0215,11.8295 -21.0059,17.7685 -6.5968,5.3461 -13.0357,10.8758 -19.6142,16.2451 -9.0445,6.5969 -17.7637,13.5854 -25.9424,21.2256 -8.2984,9.3118 -17.4111,18.0209 -15.4248,33.5303 1.7575,13.724 9.5921,26.5011 18.2666,37.2803 4.4691,5.5534 12.6188,6.6739 19.2334,9.331 4.2009,1.6876 16.6293,4.0484 21.3867,5.0244 21.8276,3.5161 43.9536,4.2356 65.9473,6.1524 14.7708,1.1156 29.4775,2.8478 44.121,5.0537 17.5365,2.6302 35.2056,4.0681 52.8516,5.7275 14.7898,2.0604 29.5491,4.3995 44.3408,6.46 25.4583,3.598 51.036,6.1526 76.6553,8.2617 31.1927,2.0246 62.3506,4.4872 93.5303,6.6943 23.7681,1.8219 47.5473,3.5015 71.3232,5.2149 21.805,1.2447 43.4862,3.7471 65.2002,6.0058 31.1547,3.1185 62.4155,4.9951 93.6475,7.1485 33.149,2.3732 66.3794,3.5376 99.5801,4.9072 23.7809,1.1912 47.5865,1.5558 71.3818,2.2998 19.1231,0.6679 38.2478,1.0413 57.3633,1.9043 13.9886,0.6317 27.8565,2.5916 41.8359,3.2666 z M 3900,5420 c 6,0 10.0049,-1.999 10.0049,-3.999 0,-3 -4.0049,-8.001 -10.0049,-11.001 -5,-3 -10.0049,-1.001 -10.0049,3.999 0,6 5.0049,11.001 10.0049,11.001 z m 2275.7813,-47.2412 c -1.3838,-0.024 -2.7537,-0.1836 -4.1309,-0.2783 1.5082,-0.393 2.6827,-0.2908 4.1309,0.2783 z m -866.1329,-9.2871 c 1.9765,-2.2071 0.8185,-1.0256 4.5264,-4.0576 0.5553,-0.4541 1.14,-0.8694 1.6992,-1.3184 -1.5658,2.0019 -3.5884,3.817 -6.2256,5.376 z m -963.164,-24.2285 c 14.1619,-0.058 28.3214,-0.1235 42.4804,-0.4395 16.3267,-0.3946 32.6676,-0.791 48.9405,-2.2558 20.4032,-1.7992 40.8095,-3.7502 61.1133,-6.4747 24.4565,-3.1923 48.8744,-6.773 73.0078,-11.9238 27.8622,-6.2169 55.4038,-13.6452 82.749,-21.8408 24.5284,-7.4703 48.9185,-15.6283 72.3193,-26.1768 19.005,-8.7838 37.7187,-18.2181 55.8692,-28.667 15.5924,-9.4194 30.8829,-19.3373 46.4062,-28.872 18.2597,-11.6939 36.5063,-23.4467 53.9502,-36.3428 14.9992,-11.2973 29.4369,-23.2864 43.667,-35.5371 13.455,-11.2344 26.7677,-22.6434 40.4004,-33.6621 13.2142,-10.6947 26.3373,-21.4883 39.8437,-31.8164 14.4572,-11.3561 29.411,-22.0779 43.5499,-33.8379 11.1817,-9.2663 22.1964,-18.7186 32.7685,-28.6817 10.5541,-9.7858 21.0731,-19.6912 30.1904,-30.8642 5.7138,-6.901 11.2406,-14.0395 15.7325,-21.8115 45.2689,-41.0106 24.6993,-87.1424 -12.7149,-85.1221 -1.107,-1.7875 -2.179,-3.5993 -3.4277,-5.2881 -8.6645,-11.7181 -20.6806,-20.1877 -33.501,-26.792 -2.8813,-1.2723 -5.7195,-2.6353 -8.6426,-3.8086 -12.7914,-5.1346 -26.4553,-7.8361 -39.7412,-11.2939 -19.3758,-3.9252 -38.7609,-7.8745 -58.3301,-10.7373 -20.1045,-3.0449 -40.1852,-6.2469 -60.2343,-9.6387 -17.6158,-2.7023 -35.2964,-4.8257 -53.0274,-6.6211 -9.2119,-0.8558 -12.8721,-1.3069 -22.1777,-1.7139 -13.4531,-0.589 -26.9203,-0.05 -40.3711,0.2784 -33.1698,0.9466 -66.3238,2.214 -99.4629,3.9404 -31.5293,1.7523 -63.035,3.9916 -94.5557,5.8887 -23.1913,1.6571 -46.3882,3.31 -69.4189,6.6064 -21.1278,2.9581 -42.1397,6.7307 -62.6807,12.5977 -18.4109,5.2905 -36.7567,10.7721 -55.1953,15.9668 -22.9502,6.5096 -45.6557,13.8015 -68.0566,22.0166 -16.8949,6.3716 -33.9106,12.6765 -49.7608,21.416 -13.0118,7.6915 -25.7732,15.8501 -37.749,25.0927 -12.08,9.5919 -24.0484,19.4132 -34.0723,31.2159 -12.375,13.8178 -24.4768,28.0984 -32.0068,45.2636 -1.2375,3.1237 -2.5754,6.211 -3.7061,9.375 -4.9008,13.7132 -7.5594,28.2005 -9.0673,42.6416 -0.762,12.5476 -0.5434,25.1069 -0.4834,37.6758 0.057,11.8406 0.1158,23.6697 0.3808,35.5078 0.2882,11.3251 0.7592,22.6482 1.6992,33.9405 0.902,11.1606 1.6702,22.3544 3.501,33.4131 2.1315,13.6507 4.4501,27.2781 7.6612,40.7226 3.5607,13.9571 7.9017,27.7075 14.2675,40.6787 3.2924,6.4176 4.9819,10.0426 8.9063,16.2451 7.238,11.4397 16.1703,21.7062 26.8652,30.044 3.1333,2.2016 6.1772,4.5449 9.4043,6.6064 4.323,2.7615 11.3812,6.2888 16.0401,8.4815 5.8926,2.7733 13.7186,6.2408 19.8339,8.2031 3.9695,1.2738 8.0564,2.1359 12.085,3.208 14.8191,2.2198 29.758,3.2934 44.751,3.1934 z m 3279.4336,-3.75 c 1.3906,0.375 3.083,-0.4903 5.083,-2.4903 8,-8 7.9961,-22.0097 0.9961,-50.0097 l -9.9903,-37.9981 -1.0107,50.0098 c -0.75,27 0.75,39.3633 4.9219,40.4883 z m -122.9151,-555.4981 c 5,0 2.002,-8.9951 -7.998,-19.9951 -10,-11 -19.9981,-18 -22.9981,-15 -7,6 17.9961,34.9951 30.9961,34.9951 z M 7425,4738.9941 c 6,0 1.0059,-5.9892 -8.9941,-13.9892 -11,-8 -24,-15 -30,-15 -5,0 -1.0098,7 9.9902,15 10,8 24.0039,13.9892 29.0039,13.9892 z M 5831.4551,4505.498 c 10.9461,-0.047 20.2011,-4.658 26.3232,-12.3632 18.4382,0.339 32.3675,-9.1619 43.5498,-25.5762 7.1047,-10.9611 14.1716,-21.9819 22.3389,-32.1973 8.4723,-10.7656 17.2223,-21.324 27.0996,-30.8496 13.4803,-13.1261 27.284,-25.9281 41.7627,-37.9541 19.4637,-16.2484 38.9837,-32.4625 59.1357,-47.8564 21.7633,-16.9915 43.7955,-33.6828 64.1748,-52.3535 17.3491,-15.6087 34.5631,-31.4102 50.4639,-48.5157 16.9347,-18.4113 33.541,-37.1699 48.0615,-57.583 9.3037,-13.1427 19.2362,-26.4565 25.3418,-41.4844 1.8416,-4.5326 4.0924,-9.0422 4.7754,-13.8867 1.164,-8.258 0.4661,-16.6686 0.7031,-25.0049 -7.4613,-10.3599 -13.3602,-22.0513 -22.3828,-31.0839 -3.7311,-3.7352 -9.6168,-4.3923 -14.6484,-5.9912 -11.0267,-3.5041 -23.4491,-2.7023 -34.834,-3.7793 -21.7196,-1.0697 -43.4381,-1.4853 -65.1855,-1.1573 -34.1636,0.036 -68.3318,0.079 -102.4952,0.2198 -42.8797,0.2042 -85.7545,0.5203 -128.6279,1.3183 -50.3254,1.0353 -100.6693,2.3515 -150.8789,6.1084 -23.0786,1.8488 -46.185,3.5981 -69.1406,6.6943 -11.3342,1.5288 -29.5447,4.2634 -40.6787,7.5293 -7.1317,2.0919 -13.9755,5.0672 -20.9619,7.6026 -14.213,9.3156 -19.9458,11.0276 -29.5899,26.0596 -8.1984,12.7781 -9.168,23.4825 -8.789,38.5253 0.1334,5.3033 3.1526,13.5523 4.8632,18.7793 5.3833,13.9905 10.9702,27.9275 17.5342,41.4112 7.7103,14.9618 16.0468,29.6046 24.9317,43.9013 12.4979,19.2545 25.5044,38.175 39.3603,56.4844 24.0835,31.8293 48.7334,63.2264 72.4512,95.332 16.7373,22.8429 11.9139,16.1401 28.1103,38.7305 11.0333,15.389 21.793,31.0291 33.4424,45.9668 1.3528,1.7346 2.8634,3.3516 4.292,5.0244 16.9349,19.8301 34.7093,28.0135 49.4971,27.9492 z m 550.122,-20.2294 c 3.0469,0.7968 10.1778,-2.7686 18.4278,-10.2686 11,-10 18,-19.998 15,-22.998 -6,-7 -35.0098,17.996 -35.0098,30.996 0,1.25 0.5664,2.0049 1.582,2.2706 z m -1857.583,-26.2647 c 11,1 17.0079,-2.0098 13.0079,-5.0098 -3,-3 -11.9991,-3.9961 -18.9991,-0.9961 -8,3 -5.0088,6.0059 5.9912,6.0059 z m 63.9991,-10.0049 c 23,1 42.0117,-2.9941 42.0117,-8.9941 0,-12 -24,-12 -60,0 -21,7 -19.0117,7.9941 17.9883,8.9941 z m 146.0009,-10.0049 c 11,1 17.0079,-1.9951 13.0079,-4.9951 -3,-3 -11.9991,-3.9961 -18.9991,-0.9961 -8,3 -5.0088,5.9912 5.9912,5.9912 z m 1701.0645,-3.5449 c 9.5625,-0.5156 30.9404,-14.9531 48.9404,-34.4531 11,-12 14.9942,-20.9912 8.9942,-20.9912 -14,0 -62.9883,38.9912 -62.9883,50.9912 0,3.25 1.8662,4.625 5.0537,4.4531 z m -554.3115,-79.6435 c 1.3241,-1.5449 2.6437,-2.97 4.1601,-4.336 -1.38,1.4509 -2.8111,2.857 -4.1601,4.336 z m -159.9317,-203.833 c -0.026,-0.051 -0.062,-0.096 -0.088,-0.1465 -0.215,-0.4299 -0.5591,-1.833 -0.4101,-1.377 0.1661,0.5081 0.3327,1.0152 0.498,1.5235 z m 469.2188,-26.8506 c -1.651,-0.3463 -3.5542,-0.2943 -5.083,-0.9229 1.4296,0.1122 2.8637,0.2049 4.2773,0.4395 0.31,0.052 1.1137,0.5434 0.8057,0.4834 z m -549.7412,-5.4346 c -0.2611,-0.7841 -0.5667,-1.5604 -0.7032,-2.373 -0.026,-0.155 0.4195,0.034 0.4395,0.1904 0.089,0.7254 0.1706,1.4558 0.2637,2.1826 z m 1272.832,-143.3057 c 1.875,0.625 4.3701,0.1231 6.8701,-1.3769 6,-3 10.0049,-11.0108 10.0049,-16.0108 0,-6 -4.0049,-6.999 -10.0049,-3.999 -5,3 -9.9902,11.0108 -9.9902,16.0108 0,3 1.2451,4.7509 3.1201,5.3759 z M 5186.001,3920 c 2,0 3.999,-7 3.999,-15 0,-8 -4.0049,-15 -10.0049,-15 -5,0 -6.999,7 -3.999,15 4,8 8.0049,15 10.0049,15 z m 1649.0039,-3.0029 c 8,0 15,-3.9942 15,-8.9942 0,-4 -7,-7.998 -15,-7.998 -8,0 -15,3.998 -15,7.998 0,5 7,8.9942 15,8.9942 z m -108.999,-7.002 c 2,0 3.999,-3.9902 3.999,-9.9902 0,-5 -5.001,-10.0049 -11.001,-10.0049 -5,0 -6.999,5.0049 -3.999,10.0049 3,6 8.001,9.9902 11.001,9.9902 z m -1216.0108,-150 c 6,0 10.0049,-8.9912 10.0049,-20.9912 0,-11 -4.0049,-17.0039 -10.0049,-14.0039 -5,3 -9.9902,13.0059 -9.9902,21.0059 0,8 4.9902,13.9892 9.9902,13.9892 z m 482.0069,-22.251 c 1.5,1 3.998,-1.749 7.998,-7.749 5,-8 10.0049,-18.0019 10.0049,-22.0019 0,-5 -4.0049,-7.9981 -10.0049,-7.9981 -5,0 -10.0049,9.9981 -10.0049,22.9981 0,9 0.5069,13.7509 2.0069,14.7509 z" />
    <path
       id="path9"
       d="m 7333.6963,5776.4258 c 2.1121,-2.6045 5.1079,-4.4932 8.9502,-5.5225 -2.9349,1.9219 -5.937,3.7306 -8.9502,5.5225 z" />
    <path
       d="m 7385,4629 c -4,-6 -4,-13 -1,-16 8,-8 36,5 36,17 0,13 -27,13 -35,-1 z"
       id="path10" />
    <path
       d="m 6810,4175 c 0,-8 7,-15 15,-15 9,0 12,6 9,15 -4,8 -10,15 -15,15 -5,0 -9,-7 -9,-15 z"
       id="path11" />
    <path
       d="m 6916,4066 c 3,-9 11,-16 16,-16 13,0 5,23 -10,28 -7,2 -10,-2 -6,-12 z"
       id="path12" />
    <path
       d="m 6956,3835 c -3,-8 -1,-15 4,-15 6,0 10,7 10,15 0,8 -2,15 -4,15 -2,0 -6,-7 -10,-15 z"
       id="path13" />
    <path
       d="m 5290,3646 c 0,-9 7,-16 16,-16 9,0 14,5 12,12 -6,18 -28,21 -28,4 z"
       id="path14" />
  </g>
</svg>
